<?xml version="1.0" standalone="no"?>
<!DOCTYPE svg PUBLIC "-//W3C//DTD SVG 20010904//EN"
 "http://www.w3.org/TR/2001/REC-SVG-20010904/DTD/svg10.dtd">
<svg version="1.0" xmlns="http://www.w3.org/2000/svg"
 width="200.000000pt" height="200.000000pt" viewBox="0 0 200.000000 200.000000"
 preserveAspectRatio="xMidYMid meet">

<g transform="translate(0.000000,200.000000) scale(0.100000,-0.100000)"
fill="#000000" stroke="none">
<path d="M1553 1640 c4 -8 22 -54 42 -102 56 -136 76 -228 82 -369 8 -188 -29
-342 -122 -500 l-34 -59 27 -7 c62 -16 106 16 153 114 52 109 72 203 72 343 0
189 -44 345 -137 482 -42 62 -91 120 -83 98z"/>
<path d="M745 1558 c-46 -27 -85 -95 -85 -150 0 -48 37 -114 77 -139 41 -26
97 -28 140 -6 104 54 110 227 10 287 -36 22 -110 26 -142 8z m100 -61 c24 -35
19 -82 -11 -106 -35 -28 -69 -26 -99 4 -29 28 -32 61 -9 93 30 44 92 48 119 9z"/>
<path d="M482 729 c-13 -11 -34 -38 -47 -59 -23 -36 -25 -49 -25 -156 0 -99 3
-121 20 -149 29 -47 72 -62 123 -44 72 25 82 49 85 220 l4 149 -30 30 c-38 37
-96 42 -130 9z"/>
<path d="M897 730 c-14 -11 -37 -40 -51 -64 -26 -44 -26 -46 -26 -266 0 -245
6 -277 59 -304 36 -19 97 -20 129 -2 13 7 32 26 43 42 17 27 19 49 19 283 l0
253 -39 39 c-45 45 -92 52 -134 19z"/>
<path d="M1322 743 c-7 -2 -25 -24 -41 -47 l-30 -43 6 -167 c7 -189 13 -206
82 -227 32 -9 44 -8 75 6 59 28 66 52 66 236 0 146 -2 165 -21 195 -11 19 -29
39 -39 44 -19 10 -76 12 -98 3z"/>
</g>
</svg>
