<?xml version="1.0" standalone="no"?>
<!DOCTYPE svg PUBLIC "-//W3C//DTD SVG 20010904//EN"
 "http://www.w3.org/TR/2001/REC-SVG-20010904/DTD/svg10.dtd">
<svg version="1.0" xmlns="http://www.w3.org/2000/svg"
 width="225.000000pt" height="225.000000pt" viewBox="0 0 225.000000 225.000000"
 preserveAspectRatio="xMidYMid meet">

<g transform="translate(0.000000,225.000000) scale(0.100000,-0.100000)"
fill="#000000" stroke="none">
<path d="M1010 1904 c-14 -3 -58 -14 -98 -25 -257 -69 -468 -280 -544 -546
-27 -93 -32 -291 -9 -388 l13 -59 27 79 c32 93 49 128 103 207 224 331 657
406 951 165 27 -21 49 -38 50 -36 62 97 84 124 124 149 74 47 137 38 206 -28
l39 -37 -26 57 c-93 212 -293 382 -521 444 -59 15 -266 27 -315 18z"/>
<path d="M1529 1221 c14 -53 13 -62 -3 -104 -29 -77 -94 -168 -192 -267 -51
-52 -100 -112 -109 -133 -8 -20 -18 -37 -20 -37 -12 0 -133 59 -172 83 -24 15
-43 23 -43 18 0 -11 85 -89 158 -144 36 -27 52 -46 52 -63 0 -100 105 -160
266 -152 l83 4 21 -67 c11 -37 20 -70 20 -73 0 -3 -29 -6 -64 -6 l-64 0 -18
53 c-9 28 -17 53 -18 54 -1 1 -30 -7 -65 -17 -94 -30 -223 -42 -318 -30 -72 9
-164 29 -204 45 -11 4 -19 -7 -33 -50 l-17 -55 -65 0 c-35 0 -64 3 -64 8 0 4
11 43 25 87 26 82 26 81 -15 104 -20 12 -120 -55 -214 -140 l-68 -62 24 -19
c50 -41 169 -119 194 -129 33 -12 44 0 44 48 0 68 -36 63 476 63 l463 0 5 -32
c3 -18 7 -44 8 -58 3 -20 8 -24 28 -22 25 3 97 46 183 110 l47 36 -37 39 c-21
21 -71 63 -110 94 -40 31 -73 57 -73 59 0 2 21 15 48 28 65 33 177 114 242
173 l54 50 -76 105 c-144 196 -337 426 -377 448 -16 8 -16 5 -2 -49z"/>
<path d="M1115 1201 c-16 -10 -91 -33 -165 -52 l-135 -33 140 -35 c77 -20 154
-44 172 -54 39 -21 65 -22 103 -2 37 19 50 43 50 95 0 84 -90 128 -165 81z
m95 -6 c26 -32 -13 -81 -47 -59 -35 22 -23 74 17 74 10 0 23 -7 30 -15z"/>
<path d="M1780 1154 c-17 -51 2 -114 36 -114 8 0 24 17 38 38 l24 37 -19 38
c-27 51 -63 52 -79 1z m57 10 c3 -8 -1 -23 -10 -32 -15 -14 -17 -14 -23 1 -8
21 1 47 16 47 6 0 13 -7 17 -16z"/>
</g>
</svg>
